<?xml version="1.0" standalone="no"?>
<svg version="1.1" width="400" height="400" xmlns="http://www.w3.org/2000/svg" xmlns:xlink="http://www.w3.org/1999/xlink">
<path fill="#222" d="M400,200c0,55.3-19.5,102.4-58.6,141.5c-39,39-86.2,58.5-141.4,58.5c-55.2,0-102.4-19.5-141.5-58.5C19.5,302.4,0,255.3,0,200V0h200c55.2,0,102.4,19.5,141.4,58.6C380.5,97.6,400,144.8,400,200z"/>
<path fill="#71bd46" d="M207,37.1c-12.1-7.6-25.1-11.7-39-12.1H25v175c0,48.4,17.1,89.6,51.3,123.8c24,24,51.5,39.6,82.5,46.8c4.6,1,9.3,1.9,14.1,2.6c12.1,1.5,24.8,1,37.9-1.3c31.4-5.5,56.4-20.4,74.9-44.5c18.7-24.1,25.6-50.4,20.6-78.9c-5-28.5-20.5-50.9-46.3-67.2c-25.7-16.3-54.2-21.7-85.6-16.1c-0.3,0.1-0.4-0.1-0.5-0.4c-0.1-0.3,0-0.5,0.3-0.5c21-3.7,37.6-13.6,50-29.8c12.4-16,16.9-33.5,13.6-52.6C234.4,62.9,224.1,47.9,207,37.1z"/>
</svg>